<svg xmlns="http://www.w3.org/2000/svg" xmlns:xlink="http://www.w3.org/1999/xlink" width="213" height="127" viewBox="0 0 213 127"><defs><clipPath id="a"><path d="M-50,0H163V127H20Z" transform="translate(0 7)" fill="#fff" stroke="#707070" stroke-width="1"/></clipPath></defs><g transform="translate(50 -7)" clip-path="url(#a)"><rect width="358" height="126.811" rx="63" transform="translate(-198 7.459)" fill="rgba(255,255,255,0)"/><path d="M63,1.75A60.955,60.955,0,0,0,28.756,12.209,61.434,61.434,0,0,0,6.563,39.159,60.865,60.865,0,0,0,1.75,63v.811A60.955,60.955,0,0,0,12.21,98.055a61.434,61.434,0,0,0,26.95,22.193A60.865,60.865,0,0,0,63,125.061H295A60.955,60.955,0,0,0,329.244,114.6a61.434,61.434,0,0,0,22.193-26.95,60.865,60.865,0,0,0,4.813-23.841V63a60.955,60.955,0,0,0-10.46-34.244,61.434,61.434,0,0,0-26.95-22.193A60.865,60.865,0,0,0,295,1.75H63M63,0H295a63,63,0,0,1,63,63v.811a63,63,0,0,1-63,63H63a63,63,0,0,1-63-63V63A63,63,0,0,1,63,0Z" transform="translate(-198 7.459)" fill="#0f3b5d"/></g></svg>