<svg width="32" height="32" viewBox="0 0 32 32" fill="none" xmlns="http://www.w3.org/2000/svg">
<path d="M30.8704 15.4899C27.8104 10.2 22.1104 6.91992 16.0004 6.91992C9.89042 6.91992 4.19041 10.2 1.13041 15.4899C0.960435 15.7999 0.960435 16.1799 1.13041 16.4899C4.19041 21.7899 9.89042 25.0799 16.0004 25.0799C22.1104 25.0799 27.8104 21.7899 30.8704 16.4899C31.0404 16.1799 31.0404 15.7999 30.8704 15.4899ZM16.0004 22.2499C12.5504 22.2499 9.75041 19.45 9.75041 15.9999C9.75041 12.5499 12.5504 9.74994 16.0004 9.74994C19.4504 9.74994 22.2504 12.5499 22.2504 15.9999C22.2504 19.45 19.4504 22.2499 16.0004 22.2499Z" fill="black"/>
<path d="M16 20.25C18.3472 20.25 20.25 18.3472 20.25 16C20.25 13.6528 18.3472 11.75 16 11.75C13.6528 11.75 11.75 13.6528 11.75 16C11.75 18.3472 13.6528 20.25 16 20.25Z" fill="black"/>
</svg>
